<svg width="129" height="120" viewBox="0 0 129 120" fill="none" xmlns="http://www.w3.org/2000/svg">
<rect width="129" height="120" rx="60" fill="black"/>
<path d="M56.776 52.512C57.928 50.64 59.584 49.128 61.744 47.976C63.904 46.824 66.376 46.248 69.16 46.248C72.472 46.248 75.472 47.088 78.16 48.768C80.848 50.448 82.96 52.848 84.496 55.968C86.08 59.088 86.872 62.712 86.872 66.84C86.872 70.968 86.08 74.616 84.496 77.784C82.96 80.904 80.848 83.328 78.16 85.056C75.472 86.736 72.472 87.576 69.16 87.576C66.328 87.576 63.856 87.024 61.744 85.92C59.632 84.768 57.976 83.256 56.776 81.384V87H44.464V33.72H56.776V52.512ZM74.344 66.84C74.344 63.768 73.48 61.368 71.752 59.64C70.072 57.864 67.984 56.976 65.488 56.976C63.04 56.976 60.952 57.864 59.224 59.64C57.544 61.416 56.704 63.84 56.704 66.912C56.704 69.984 57.544 72.408 59.224 74.184C60.952 75.96 63.04 76.848 65.488 76.848C67.936 76.848 70.024 75.96 71.752 74.184C73.48 72.36 74.344 69.912 74.344 66.84Z" fill="#1BAC21"/>
</svg>
